<?xml version="1.0" standalone="no"?>
<!DOCTYPE svg PUBLIC "-//W3C//DTD SVG 20010904//EN"
 "http://www.w3.org/TR/2001/REC-SVG-20010904/DTD/svg10.dtd">
<svg version="1.0" xmlns="http://www.w3.org/2000/svg"
 width="512.000000pt" height="512.000000pt" viewBox="0 0 512.000000 512.000000"
 preserveAspectRatio="xMidYMid meet">
<metadata>
Created by potrace 1.11, written by Peter Selinger 2001-2013
</metadata>
<g transform="translate(0.000000,512.000000) scale(0.100000,-0.100000)"
fill="#000000" stroke="none">
<path d="M565 3188 c-3 -7 -4 -287 -3 -623 l3 -610 165 0 c220 0 276 20 322
114 19 39 22 67 26 192 5 181 -7 246 -53 298 -33 36 -33 37 -14 50 11 6 29 31
40 54 16 36 19 66 19 208 0 161 -1 167 -27 220 -21 41 -39 60 -73 79 -42 24
-55 25 -223 28 -140 3 -178 1 -182 -10z m333 -178 c9 -18 12 -64 10 -163 -3
-132 -4 -140 -27 -158 -17 -14 -39 -19 -87 -19 l-64 0 0 185 0 186 77 -3 c71
-3 79 -5 91 -28z m-9 -526 c19 -24 21 -40 21 -171 0 -139 -7 -177 -34 -195 -6
-4 -41 -8 -78 -8 l-68 0 0 200 0 200 69 0 c63 0 71 -2 90 -26z"/>
<path d="M1382 3113 c-25 -175 -129 -847 -166 -1075 -7 -43 -11 -80 -8 -83 8
-8 162 -6 162 3 0 7 16 112 25 170 l6 32 98 0 97 0 15 -102 14 -103 74 -3 c41
-2 78 1 83 6 4 4 -5 98 -22 208 -39 266 -149 972 -156 1007 l-6 27 -102 0
-102 0 -12 -87z m153 -528 c19 -137 35 -256 35 -262 0 -14 -135 -19 -143 -5
-3 4 11 125 31 270 20 144 38 259 39 255 2 -4 19 -120 38 -258z"/>
<path d="M1940 2576 l0 -625 78 4 77 4 5 396 5 395 64 -390 c36 -215 67 -393
71 -395 3 -2 42 -5 85 -6 l80 -2 66 394 67 394 3 -394 4 -393 80 -2 80 -1 3
623 2 622 -123 0 -124 0 -16 -107 c-8 -60 -31 -205 -51 -323 -19 -118 -43
-264 -52 -324 -10 -60 -20 -104 -22 -98 -2 6 -34 199 -71 429 l-67 418 -122 3
-122 3 0 -625z"/>
<path d="M2910 2578 l0 -623 82 1 81 1 1 224 1 224 87 6 c99 7 143 24 187 74
47 54 53 93 49 344 -3 214 -4 228 -26 266 -27 47 -76 83 -129 96 -21 5 -104 9
-185 9 l-148 0 0 -622z m304 440 c13 -19 16 -57 16 -219 0 -233 0 -232 -96
-227 l-59 3 -3 233 -3 232 65 0 c56 0 67 -3 80 -22z"/>
<path d="M3555 3188 c-3 -7 -4 -287 -3 -623 l3 -610 84 0 83 0 -1 251 c-1 138
1 263 5 277 l6 27 109 0 109 0 0 80 0 80 -113 0 -114 0 -2 185 -2 185 120 0
121 0 0 80 0 80 -200 0 c-151 0 -202 -3 -205 -12z"/>
<path d="M4142 2598 c-52 -332 -94 -612 -95 -623 -2 -18 5 -20 81 -22 45 -1
82 0 82 1 0 15 22 176 26 189 5 15 18 17 99 17 68 0 94 -4 98 -13 3 -8 8 -45
12 -83 12 -113 13 -114 94 -114 94 0 101 4 90 43 -9 30 -27 144 -134 857 -25
162 -48 307 -51 323 l-6 27 -102 0 -102 0 -92 -602z m233 -31 c14 -106 28
-207 32 -224 l5 -33 -77 0 -78 0 5 33 c3 17 21 138 39 267 38 265 32 268 74
-43z"/>
</g>
</svg>
